# xmcd
#
# Track frame offsets: 
#        150
#        14175
#        28249
#        42309
#        56139
#        67429
#        80033
#        93495
#        106237
#        119270
#        131470
#        147315
#        159057
#        170475
#        182530
#        195850
#        208345
#        222373
#        232203
#        245052
#        259357
#        270934
#        288450
#        299924
#
# Disc length: 4154 seconds
#
# Revision: 1
# Processed by: cddbd v1.5.2PL0 Copyright (c) Steve Scherf et al.
# Submitted via: ExactAudioCopy v0.99pb2
#
DISCID=85103818
DTITLE=Various Artist - The Complete Motown Singles Volume 8 [CD42)
DYEAR=1968
DGENRE=R&B/Soul
TTITLE0=Four Tops - I'm In A Different World
TTITLE1=Four Tops - Remember When
TTITLE2=The Fantastic Four - I Love You Madly
TTITLE3=The Fantastic Four  - I Love You Madly (Instrumental)
TTITLE4=Marvin Gaye and Tammi Terrell - Keep On Lovin' Me Honey
TTITLE5=Marvin Gaye and Tammi Terrell - You Ain't Livin' Till Your Lovin
TTITLE5='
TTITLE6=Diana Ross and The Supremes - Love Child
TTITLE7=Diana Ross and The Supremes - Will This Be The Day
TTITLE8=Diana Ross and The Supremes  - Love Child (Alternate Version)
TTITLE9=Barbara McNair - You Could Never Love Him (Like I Love Him)
TTITLE10=Barbara McNair - Fancy Passes
TTITLE11=Marv Johnson - I'll Pick A Rose For My Rose
TTITLE12=Marv Johnson - You Got The Love I Love
TTITLE13=Bobby Taylor and The Vancouvers - Malinda
TTITLE14=Bobby Taylor and The Vancouvers - It's Growing
TTITLE15=Bobby Taylor and The Vancouvers  - Malinda (Alternate Mix)
TTITLE16=Martha Reeved and The Vandellas - Sweet Darlin'
TTITLE17=Martha Reeves and The Vandellas - Without You
TTITLE18=Stevie Wonder - For Once In My Life
TTITLE19=Stevie Wonder - Angie Girl
TTITLE20=Abdullah - Comma Zimba Zio (Here I Stand The Mighty One)
TTITLE21=Abdullah - Why Them, Why Me
TTITLE22=The Spinners - Bad, Bad Weather (Till You Come Home)
TTITLE23=The Spinners - I Just Can't Help But Feel The Pain
EXTD=
EXTT0=
EXTT1=
EXTT2=
EXTT3=
EXTT4=
EXTT5=
EXTT6=
EXTT7=
EXTT8=
EXTT9=
EXTT10=
EXTT11=
EXTT12=
EXTT13=
EXTT14=
EXTT15=
EXTT16=
EXTT17=
EXTT18=
EXTT19=
EXTT20=
EXTT21=
EXTT22=
EXTT23=
PLAYORDER=
